<?xml version="1.0" standalone="no"?>
<!DOCTYPE svg PUBLIC "-//W3C//DTD SVG 20010904//EN"
 "http://www.w3.org/TR/2001/REC-SVG-20010904/DTD/svg10.dtd">
<svg version="1.0" xmlns="http://www.w3.org/2000/svg"
 width="1024.000000pt" height="1024.000000pt" viewBox="0 0 1024.000000 1024.000000"
 preserveAspectRatio="xMidYMid meet">
<metadata>
Created by potrace 1.11, written by Peter Selinger 2001-2013
</metadata>
<g transform="translate(0.000000,1024.000000) scale(0.100000,-0.100000)"
fill="#000000" stroke="none">
<path d="M5620 8819 c-41 -13 -67 -33 -86 -72 -12 -22 -51 -145 -70 -217 -2
-8 -22 -78 -44 -155 -23 -77 -50 -169 -60 -205 -9 -36 -33 -119 -53 -185 -19
-66 -83 -286 -142 -490 -58 -203 -119 -413 -135 -465 -23 -79 -35 -120 -45
-160 0 -3 -11 -36 -23 -75 -11 -38 -47 -158 -77 -265 -31 -107 -63 -217 -71
-245 -8 -27 -17 -57 -19 -65 -2 -8 -18 -64 -35 -123 -17 -60 -33 -116 -35
-125 -3 -9 -18 -62 -35 -117 -17 -55 -33 -108 -35 -119 -2 -10 -12 -44 -21
-75 -9 -31 -18 -63 -20 -71 -2 -8 -48 -170 -104 -360 -55 -190 -141 -487 -191
-660 -50 -173 -114 -391 -141 -485 -27 -93 -51 -177 -53 -185 -2 -8 -13 -46
-25 -85 -12 -38 -23 -77 -25 -85 -2 -8 -31 -109 -65 -225 -34 -115 -78 -271
-100 -345 -21 -74 -55 -191 -75 -260 -21 -69 -40 -134 -43 -145 -2 -11 -22
-81 -44 -155 -22 -74 -41 -142 -43 -150 -2 -8 -40 -141 -85 -294 -92 -319 -97
-347 -73 -395 23 -43 68 -68 178 -97 11 -3 143 -42 315 -94 276 -82 489 -143
524 -150 118 -23 178 43 232 255 2 6 5 19 8 30 3 11 28 99 57 195 28 96 54
184 56 195 3 11 20 70 38 130 46 157 86 294 90 314 6 22 30 106 47 161 8 25
15 48 16 53 1 4 2 8 3 10 0 1 2 9 4 17 1 8 20 71 40 140 20 69 38 132 40 140
2 8 16 56 30 105 15 50 29 97 30 105 2 8 14 47 25 85 12 39 30 99 40 135 10
36 32 112 50 170 17 58 33 112 35 120 3 14 110 385 250 870 31 107 76 263 100
345 24 83 69 238 100 345 31 107 58 202 60 210 2 8 24 85 50 170 25 85 47 164
50 175 2 11 25 90 50 175 48 160 72 244 79 270 10 38 89 309 206 710 28 96 53
183 55 194 2 10 13 48 24 85 30 96 133 453 136 471 2 8 4 15 5 15 1 0 3 7 5
15 1 8 38 134 80 280 43 146 79 281 81 300 3 47 -21 95 -59 118 -18 10 -66 28
-107 40 -130 39 -233 70 -295 87 -33 9 -71 21 -85 25 -14 5 -56 18 -95 29 -38
12 -137 41 -220 65 -177 53 -209 58 -255 45z"/>
<path d="M2705 7236 c-17 -7 -64 -44 -104 -82 -40 -38 -92 -86 -115 -108 -140
-130 -285 -267 -321 -301 -23 -22 -97 -92 -165 -155 -67 -63 -143 -134 -167
-157 -24 -23 -96 -90 -160 -150 -64 -59 -135 -126 -158 -148 -40 -37 -237
-223 -315 -295 -38 -36 -240 -224 -299 -280 -21 -19 -98 -91 -171 -160 -151
-141 -177 -167 -203 -199 -42 -52 -30 -138 27 -194 36 -36 309 -294 337 -318
9 -8 77 -71 150 -140 72 -68 143 -135 158 -148 14 -13 84 -78 155 -145 71 -67
148 -139 171 -161 24 -22 99 -92 167 -156 67 -64 154 -145 192 -180 38 -35 86
-80 106 -99 20 -19 92 -87 159 -150 68 -63 144 -135 170 -160 26 -25 103 -97
171 -160 67 -63 130 -122 139 -131 90 -92 186 -90 274 5 16 17 80 85 142 151
62 66 137 147 168 180 31 33 99 105 151 160 53 54 96 100 96 102 0 1 12 15 28
31 69 73 87 103 91 155 4 59 -14 81 -204 247 -66 58 -122 107 -125 110 -3 3
-79 70 -170 150 -91 79 -167 147 -170 150 -3 3 -95 84 -205 180 -110 95 -207
181 -216 189 -9 9 -29 27 -45 40 -93 78 -234 206 -234 212 0 4 46 47 103 95
56 49 111 98 123 109 12 11 34 31 50 44 55 47 179 155 184 160 3 3 39 35 80
71 41 36 81 72 90 80 9 8 30 26 46 40 16 13 65 56 109 95 44 39 179 158 300
263 121 106 235 213 253 238 54 76 41 128 -56 232 -31 34 -95 102 -142 153
-47 50 -107 115 -135 143 -27 29 -102 108 -165 175 -171 184 -186 199 -219
215 -36 19 -85 20 -126 2z"/>
<path d="M7443 7240 c-23 -10 -101 -86 -263 -260 -58 -61 -129 -138 -158 -169
-29 -31 -95 -101 -145 -155 -51 -55 -105 -113 -120 -129 -38 -40 -67 -99 -67
-134 0 -15 10 -44 21 -63 26 -43 48 -64 264 -250 60 -52 117 -102 126 -110 17
-17 8 -8 284 -250 110 -96 202 -177 205 -180 3 -3 59 -52 125 -110 66 -58 125
-109 131 -115 6 -5 42 -37 80 -71 38 -33 85 -75 104 -92 l35 -32 -45 -41 c-25
-23 -59 -53 -75 -68 -17 -14 -64 -56 -105 -92 -41 -36 -90 -79 -109 -95 -19
-16 -39 -33 -45 -39 -16 -15 -175 -155 -215 -190 -18 -16 -39 -35 -45 -40 -6
-6 -99 -87 -206 -180 -107 -93 -211 -184 -230 -201 -19 -17 -75 -67 -125 -110
-152 -133 -175 -162 -175 -214 0 -68 -6 -61 350 -441 347 -370 368 -391 403
-407 57 -25 124 -9 181 42 30 26 231 215 311 291 23 22 93 88 156 146 63 59
130 122 150 140 20 19 91 86 159 149 68 63 144 135 170 160 26 25 101 95 166
155 64 61 132 124 149 140 18 17 63 59 101 95 38 36 135 126 214 201 182 171
199 187 344 323 66 61 134 126 153 143 95 92 97 166 6 258 -16 17 -89 86 -163
155 -73 69 -143 134 -154 145 -12 11 -91 85 -176 165 -201 189 -178 167 -326
306 -71 67 -162 153 -203 190 -41 38 -91 85 -111 104 -20 19 -99 94 -176 165
-76 72 -153 144 -172 161 -18 18 -78 74 -134 125 -55 52 -124 117 -153 144
-29 28 -106 100 -171 160 -64 61 -124 117 -133 126 -52 51 -131 72 -188 49z"/>
</g>
</svg>
