<?xml version="1.0" encoding="UTF-8" standalone="no"?>
<!DOCTYPE svg PUBLIC "-//W3C//DTD SVG 1.1//EN" "http://www.w3.org/Graphics/SVG/1.1/DTD/svg11.dtd">
<svg version="1.1" xmlns="http://www.w3.org/2000/svg" xmlns:xlink="http://www.w3.org/1999/xlink"
     preserveAspectRatio="xMidYMid meet"
     viewBox="200.51352217232832 92.95177413141278 47.379761141815464 46.30903749303073" width="43.38" height="42.31">
    <defs>
        <path d="M223.2 93.95C211.23 93.95 201.51 103.66 201.51 115.64C201.51 125.22 207.73 133.35 216.35 136.22C217.43 136.42 217.83 135.75 217.83 135.18C217.83 134.66 217.81 133.3 217.8 131.49C211.76 132.8 210.49 128.58 210.49 128.58C209.51 126.07 208.08 125.41 208.08 125.41C206.11 124.06 208.23 124.09 208.23 124.09C210.41 124.24 211.55 126.33 211.55 126.33C213.49 129.64 216.63 128.68 217.87 128.13C218.06 126.73 218.62 125.77 219.24 125.23C214.43 124.68 209.36 122.82 209.36 114.51C209.36 112.14 210.21 110.2 211.6 108.69C211.37 108.14 210.63 105.93 211.81 102.95C211.81 102.95 213.63 102.36 217.77 105.17C219.5 104.69 221.36 104.45 223.2 104.44C225.05 104.45 226.9 104.69 228.63 105.17C232.78 102.36 234.59 102.95 234.59 102.95C235.78 105.93 235.03 108.14 234.81 108.69C236.2 110.2 237.04 112.14 237.04 114.51C237.04 122.84 231.97 124.67 227.14 125.21C227.91 125.88 228.61 127.2 228.61 129.23C228.61 132.13 228.58 134.47 228.58 135.18C228.58 135.76 228.97 136.43 230.07 136.22C238.68 133.35 244.89 125.22 244.89 115.64C244.89 103.66 235.18 93.95 223.2 93.95"
              id="b1ypt5nwi5"></path>
    </defs>
    <g>
        <g>
            <use xlink:href="#b1ypt5nwi5" opacity="1" fill="#1b1817" fill-opacity="1"></use>
            <g>
                <use xlink:href="#b1ypt5nwi5" opacity="1" fill-opacity="0" stroke="#000000" stroke-width="1"
                     stroke-opacity="0"></use>
            </g>
        </g>
    </g>
</svg>